<svg xmlns="http://www.w3.org/2000/svg" fill="none" width="400" height="200" viewBox="0 0 400 400"><path fill="#E27841" d="M344.373 134.736c-2.704-7.577-6.209-14.198-17.025-18.25-10.348-3.855-21.597-3.69-33.281-2.504.301-.461.368-.758.568-.823 12.017-2.702 24.201-5.008 37.253-3.855 12.785 1.12 20.129 7.478 17.625 15.319-.834 2.569-2.136 5.073-3.304 7.609-.334.725-1.002 1.384-1.836 2.504Z"/><path fill="#3C619C" d="M178.402 242.195c-2.904 2.174-6.042 4.513-9.147 6.918-17.725 13.606-37.253 24.279-59.117 31.098-9.18 2.866-18.46 4.678-28.207 3.229-7.645-1.121-14.922-3.196-20.964-7.841-9.213-7.115-12.05-16.537-10.615-27.211 1.903-13.967 9.013-25.728 18.393-36.533 10.615-12.255 23.834-21.676 37.888-30.176 18.292-11.068 37.587-20.095 58.884-25.102 14.187-3.327 28.507-4.678 42.961-1.581 2.938.626 5.842 1.548 8.713 2.438 3.905 1.219 6.876 3.623 9.146 7.148 1.469-.692 2.938-1.285 4.273-2.042 11.416-6.193 23.5-10.97 36.418-13.671 5.809-1.186 11.817-1.549 17.726-2.273 1.001-.132 1.969-.198 3.104 0-2.37 1.317-4.74 2.602-7.043 3.986-9.547 5.797-17.993 12.814-25.87 20.424-16.29 15.747-30.444 32.943-41.259 52.379-4.44 7.939-8.312 16.142-9.648 25.102-.367 2.537-.4 5.205.034 7.742.968 5.534 4.072 7.577 10.148 7.115 5.508-.428 10.381-2.536 15.021-5.04 11.884-6.424 21.898-14.923 31.412-24.015 11.516-11.003 21.631-23.06 30.643-35.908 7.878-11.266 14.822-23.027 18.293-36.237.801-3.063 1.068-6.259 1.102-9.421.033-4.81-2.704-8.137-7.377-10.081-5.375-2.24-11.05-2.701-16.891-2.371-14.354.823-28.007 4.183-41.159 9.52-.534.231-1.102.395-2.17.791 16.223-14.594 34.082-25.63 55.88-30.341 6.509-1.383 13.119-1.68 19.661-.098 11.216 2.701 16.958 10.113 19.662 19.996 2.837 10.443 1.235 20.754-1.703 30.933-5.541 19.304-15.588 36.566-28.04 52.774-11.249 14.627-24.034 27.969-39.022 39.433-13.853 10.574-28.608 19.831-46.032 24.674-9.614 2.668-19.361 2.866-29.009.164-5.407-1.515-9.346-5.04-12.25-9.52-3.606-5.501-5.174-11.596-5.074-17.954.1-6.127.801-12.189 1.235-18.448Zm41.092-69.311c-2.07-.231-3.572-.461-5.041-.527-10.915-.33-21.597 1.054-32.012 4.019-29.509 8.433-54.278 24.213-76.81 43.221-5.741 4.842-10.281 10.969-15.088 16.734-3.205 3.888-5.742 8.203-7.043 13.046-1.67 6.127 1.235 9.685 8.078 9.784 1.469.033 2.97-.033 4.406-.231 8.946-1.318 17.091-4.711 25.036-8.466 15.689-7.379 29.909-16.735 43.595-26.881 7.311-5.403 14.254-11.135 20.062-18.02 3.105-3.657 6.677-7.017 10.248-10.311 7.545-6.951 15.256-13.77 22.9-20.655.434-.396.801-.824 1.669-1.713Z"/></svg>