<svg width="192" height="64" viewBox="0 0 192 64" fill="none" xmlns="http://www.w3.org/2000/svg">
<path fill-rule="evenodd" clip-rule="evenodd" d="M44.4875 32.1998C44.4875 37.1695 48.3268 41.1996 53.0633 41.1996C57.7999 41.1996 61.6392 37.1695 61.6392 32.1998C61.6392 27.23 57.7999 23.2 53.0633 23.2C48.3269 23.2 44.4875 27.23 44.4875 32.1998ZM31.3392 63.9999C26.6648 63.9999 22.8637 60.0747 22.7658 55.1946C22.7634 47.4646 16.7935 41.1974 9.42711 41.1974C9.38892 41.1974 9.35072 41.198 9.3126 41.1987C9.2744 41.1993 9.23621 41.1999 9.19801 41.1999C4.47846 41.1801 0.658203 37.1577 0.658203 32.2001C0.658203 27.2304 4.49752 23.2003 9.23405 23.2003C9.2484 23.2003 9.26036 23.2003 9.27224 23.1978C9.32479 23.2003 9.37487 23.2003 9.42734 23.2003C16.7936 23.2003 22.7661 16.9327 22.7661 9.20014C22.7661 9.16014 22.7655 9.12014 22.7649 9.08014C22.7644 9.04014 22.7638 9.00014 22.7638 8.96014C22.7851 4.00754 26.615 0 31.3396 0C36.0761 0 39.9155 4.02975 39.9155 8.99982C39.9155 13.9571 36.0974 17.9797 31.3775 18.0021C31.3011 17.9997 31.2248 17.9996 31.1508 17.9996C23.7822 17.9996 17.8096 24.2672 17.8096 31.9999C17.8096 32.0258 17.8102 32.0523 17.8108 32.0792C17.8114 32.1067 17.812 32.1345 17.812 32.1623C17.812 32.1686 17.8114 32.1748 17.8108 32.1811C17.8102 32.1873 17.8096 32.1936 17.8096 32.1999C17.8096 32.2086 17.8102 32.2179 17.8108 32.2273C17.8114 32.2367 17.812 32.2461 17.812 32.2548C17.9433 39.8702 23.8632 45.9978 31.1507 45.9978H31.3034H31.3392C36.0758 45.9978 39.9151 50.0275 39.9151 55.0001C39.9151 59.9698 36.0759 63.9999 31.3392 63.9999ZM31.0961 37.1195C33.7951 37.1195 35.983 34.8272 35.983 31.9995C35.983 29.1717 33.7951 26.8794 31.0961 26.8794C28.3972 26.8794 26.2092 29.1717 26.2092 31.9995C26.2092 34.8272 28.3972 37.1195 31.0961 37.1195Z" fill="#1F5EFF"/>
<path d="M86.8499 24.286C85.7742 24.286 84.7711 24.4737 83.8397 24.8492C82.943 25.2247 82.1552 25.7691 81.4738 26.4825C80.8287 27.1959 80.3094 28.0783 79.9151 29.1296C79.5208 30.1809 79.324 31.4012 79.324 32.7904C79.324 35.5689 80.0223 37.6716 81.4206 39.0984C82.818 40.4876 84.6275 41.1822 86.8499 41.1822C88.1038 41.1822 89.1787 41.0132 90.0746 40.6753C91.0068 40.2999 91.8309 39.9056 92.5477 39.4926C93.0493 39.8681 93.4436 40.2999 93.7307 40.788C94.0532 41.2761 94.2145 41.8393 94.2145 42.4776C94.2145 43.7542 93.4976 44.8056 92.0639 45.6315C90.6302 46.4576 88.6949 46.8706 86.258 46.8706C84.2155 46.8706 82.3342 46.589 80.6142 46.0258C78.9297 45.4251 77.4782 44.5427 76.2598 43.3788C75.0413 42.1772 74.0916 40.6941 73.4107 38.9294C72.7656 37.1647 72.4431 35.1184 72.4431 32.7904C72.4431 30.4249 72.8015 28.3599 73.5182 26.5952C74.235 24.7929 75.2025 23.3097 76.421 22.1458C77.6753 20.9443 79.1264 20.062 80.7755 19.4987C82.4237 18.898 84.18 18.5976 86.0435 18.5976C88.4441 18.5976 90.3617 19.0482 91.7954 19.9494C93.2283 20.8129 93.9452 21.883 93.9452 23.1596C93.9452 23.7604 93.7839 24.3048 93.4614 24.7929C93.1751 25.281 92.8348 25.6753 92.4405 25.9757C91.7236 25.5626 90.9172 25.1871 90.0214 24.8492C89.161 24.4737 88.1038 24.286 86.8499 24.286Z" fill="white"/>
<path d="M104.517 35.9444C105.018 37.8593 105.95 39.2485 107.312 40.1121C108.674 40.9757 110.358 41.4075 112.365 41.4075C113.871 41.4075 115.25 41.1822 116.504 40.7316C117.794 40.2436 118.834 39.7367 119.622 39.211C120.124 39.5114 120.536 39.9244 120.859 40.45C121.181 40.9757 121.342 41.5389 121.342 42.1397C121.342 42.8906 121.092 43.5665 120.59 44.1672C120.124 44.7304 119.461 45.2186 118.601 45.6316C117.777 46.0446 116.791 46.3637 115.645 46.589C114.497 46.8144 113.261 46.927 111.935 46.927C109.821 46.927 107.886 46.6266 106.129 46.0258C104.409 45.4251 102.922 44.524 101.668 43.3224C100.449 42.0834 99.4816 40.5627 98.7648 38.7604C98.0842 36.9582 97.7439 34.8556 97.7439 32.4525C97.7439 30.1246 98.0842 28.097 98.7648 26.3699C99.4461 24.6427 100.36 23.1971 101.506 22.0332C102.689 20.8692 104.051 20.0057 105.592 19.4424C107.133 18.8792 108.764 18.5976 110.484 18.5976C112.24 18.5976 113.853 18.898 115.322 19.4987C116.791 20.062 118.045 20.8692 119.085 21.9205C120.124 22.9343 120.93 24.1733 121.504 25.6377C122.113 27.0645 122.417 28.6227 122.417 30.3123C122.417 31.3637 122.149 32.1521 121.611 32.6778C121.109 33.2035 120.393 33.5414 119.461 33.6916L104.517 35.9444ZM110.484 23.9481C108.728 23.9481 107.258 24.5676 106.076 25.8067C104.893 27.0082 104.23 28.7353 104.087 30.9882L116.02 29.1296C115.878 27.7404 115.358 26.5389 114.462 25.5251C113.566 24.4737 112.24 23.9481 110.484 23.9481Z" fill="white"/>
<path d="M134.524 46.0258C134.201 46.1009 133.771 46.1948 133.234 46.3074C132.696 46.42 132.087 46.4764 131.406 46.4764C130.152 46.4764 129.22 46.2324 128.611 45.7442C128.002 45.2561 127.697 44.3925 127.697 43.1535V25.2998C127.697 24.3236 127.911 23.4975 128.342 22.8217C128.772 22.1458 129.399 21.545 130.223 21.0194C131.334 20.306 132.696 19.724 134.308 19.2734C135.957 18.8229 137.731 18.5976 139.63 18.5976C143.035 18.5976 144.737 19.7053 144.737 21.9206C144.737 22.4462 144.648 22.9531 144.469 23.4412C144.325 23.8917 144.164 24.2673 143.985 24.5676C143.161 24.3799 142.139 24.286 140.921 24.286C139.667 24.286 138.484 24.4362 137.373 24.7365C136.262 25.0369 135.312 25.4125 134.524 25.863V46.0258Z" fill="white"/>
<path d="M155.891 37.8024C155.891 39.0039 156.231 39.8675 156.912 40.3931C157.629 40.9187 158.614 41.1815 159.869 41.1815C160.478 41.1815 161.087 41.1065 161.696 40.9563C162.341 40.8061 162.915 40.6183 163.416 40.3931C163.703 40.6935 163.936 41.0689 164.115 41.5195C164.331 41.9325 164.438 42.4207 164.438 42.9839C164.438 44.1103 163.954 45.049 162.986 45.7999C162.019 46.5133 160.46 46.8699 158.309 46.8699C155.478 46.8699 153.239 46.2129 151.59 44.8987C149.978 43.5471 149.172 41.3318 149.172 38.2529V12.4017C149.458 12.3266 149.87 12.2327 150.408 12.1201C150.981 12.0074 151.591 11.9511 152.235 11.9511C153.49 11.9511 154.403 12.1952 154.977 12.6833C155.586 13.1714 155.891 14.0349 155.891 15.2741V19.9487H163.793C163.972 20.249 164.133 20.6433 164.277 21.1314C164.42 21.6195 164.492 22.1452 164.492 22.7084C164.492 23.6846 164.277 24.398 163.847 24.8485C163.416 25.2992 162.843 25.5244 162.127 25.5244H155.891V37.8024Z" fill="white"/>
<path d="M179.954 41.5202C180.992 41.5202 181.942 41.4263 182.803 41.2385C183.662 41.0132 184.29 40.7504 184.684 40.45V34.1984L179.47 34.7053C178.036 34.8556 176.943 35.1935 176.191 35.7191C175.438 36.2072 175.062 36.9957 175.062 38.0846C175.062 39.1735 175.438 40.0183 176.191 40.619C176.979 41.2198 178.233 41.5202 179.954 41.5202ZM179.739 18.5976C183.25 18.5976 186.046 19.3861 188.124 20.9631C190.239 22.5401 191.296 24.9806 191.296 28.2848V41.2948C191.296 42.196 191.081 42.9094 190.651 43.4351C190.221 43.9608 189.684 44.43 189.038 44.8431C188.035 45.4814 186.763 45.9883 185.222 46.3637C183.681 46.7392 181.925 46.927 179.954 46.927C176.37 46.927 173.538 46.2136 171.46 44.7868C169.418 43.3224 168.396 41.1447 168.396 38.2536C168.396 35.7379 169.148 33.823 170.654 32.5089C172.195 31.1572 174.416 30.3311 177.319 30.0307L184.684 29.2422V28.2285C184.684 26.8017 184.182 25.7504 183.179 25.0745C182.211 24.3986 180.831 24.0607 179.039 24.0607C177.642 24.0607 176.28 24.2485 174.954 24.6239C173.629 24.9618 172.446 25.3937 171.406 25.9193C171.012 25.6189 170.672 25.2247 170.385 24.7365C170.134 24.2109 170.009 23.6477 170.009 23.0469C170.009 22.296 170.17 21.6953 170.493 21.2447C170.851 20.7566 171.406 20.3248 172.159 19.9494C173.198 19.4987 174.381 19.1608 175.707 18.9355C177.033 18.7102 178.377 18.5976 179.739 18.5976Z" fill="white"/>
</svg>
