<svg width="23" height="33" viewBox="0 0 23 33" fill="none" xmlns="http://www.w3.org/2000/svg">
<path d="M1.87001 15.303C2.01263 15.706 2.2589 16.0644 2.58401 16.342C2.71401 17.706 3.01701 20.325 3.32001 22.857L3.51501 24.264C3.79601 26.558 4.05601 28.55 4.14301 29.048C4.46801 30.866 6.97902 31.775 11.611 31.775C14.165 31.775 18.559 31.407 19.079 29.048V29.005C19.209 27.944 20.269 19.481 20.594 16.256C20.9733 15.9702 21.2472 15.5669 21.373 15.109V15.066C21.395 14.979 21.741 12.014 21.741 10.845V10.823C21.675 8.59699 16.459 7.59698 11.589 7.59698C6.71901 7.59698 1.48001 8.61399 1.43701 10.797V10.819V10.841C1.45432 11.4925 1.50505 12.1427 1.58901 12.789L1.87001 15.303Z" fill="white"/>
<path d="M11.4591 19.026C9.64105 19.026 4.16505 18.745 2.77905 17.511L3.53705 16.732C4.31605 17.425 8.36405 17.944 11.4591 17.944C14.1861 17.944 17.65 17.771 20.204 16.45L20.7231 17.381C17.9311 18.831 14.2941 19.026 11.4591 19.026Z" fill="#29ABE2"/>
<path d="M2.29997 14.849C2.75497 15.607 4.22597 16.364 7.19197 16.775L7.10497 14.394C10.395 15 18.793 14.675 21.499 12.922L21.109 12.056C18.425 13.571 14.096 13.656 11.628 13.723C9.50698 13.81 4.50697 13.463 1.99597 12.013L2.29997 14.849Z" fill="#2BACE2"/>
<path d="M3.34204 16.818C3.64204 19.545 4.35904 25.498 4.85704 29.545C4.96504 30.045 5.55004 30.909 8.58004 31.32L7.75704 18.42" fill="#2BACE2"/>
<path d="M17.761 25.022C17.761 25.022 16.744 25.13 15.488 25.282C14.038 25.477 13.064 25.52 13.064 25.52L13.259 31.472L17.285 30.931L17.761 25.022Z" fill="#DCDBDB"/>
<path d="M13.234 31.884C13.1856 31.8845 13.1376 31.8752 13.0929 31.8566C13.0482 31.8381 13.0077 31.8106 12.974 31.776C12.8868 31.6991 12.8325 31.5917 12.822 31.476L12.627 25.524C12.627 25.415 12.6703 25.3104 12.7473 25.2334C12.8244 25.1563 12.929 25.113 13.038 25.113C13.038 25.113 14.038 25.07 15.419 24.875C16.674 24.723 17.692 24.615 17.692 24.615C17.8146 24.6209 17.9337 24.658 18.038 24.723C18.146 24.81 18.146 24.918 18.146 25.069L17.646 30.978C17.6417 31.0728 17.605 31.1633 17.5421 31.2343C17.4791 31.3053 17.3936 31.3525 17.3 31.368L13.274 31.909C13.277 31.884 13.234 31.884 13.234 31.884ZM13.472 25.884L13.624 31.014L16.849 30.603L17.26 25.516C16.849 25.559 16.199 25.624 15.485 25.711C14.598 25.801 13.883 25.845 13.472 25.888V25.884Z" fill="#18475C"/>
<path d="M17.3877 26.4591L13.0179 26.92L13.0429 27.1567L17.4127 26.6958L17.3877 26.4591Z" fill="#18475C"/>
<path d="M17.3438 27.0651L12.974 27.526L12.999 27.7627L17.3687 27.3018L17.3438 27.0651Z" fill="#18475C"/>
<path d="M17.3438 27.6281L12.974 28.089L12.999 28.3257L17.3687 27.8648L17.3438 27.6281Z" fill="#18475C"/>
<path d="M17.3008 28.2341L12.931 28.695L12.956 28.9317L17.3258 28.4708L17.3008 28.2341Z" fill="#18475C"/>
<path d="M17.3008 28.7971L12.931 29.258L12.956 29.4947L17.3258 29.0338L17.3008 28.7971Z" fill="#18475C"/>
<path d="M17.2577 29.4031L12.8879 29.864L12.9129 30.1007L17.2827 29.6398L17.2577 29.4031Z" fill="#18475C"/>
<path d="M17.2577 29.9881L12.8879 30.449L12.9129 30.6857L17.2827 30.2248L17.2577 29.9881Z" fill="#18475C"/>
<path d="M17.4087 25.8751L13.0389 26.336L13.0639 26.5727L17.4337 26.1118L17.4087 25.8751Z" fill="#18475C"/>
<path d="M22.325 10.413C22.26 8.075 16.762 7.013 11.632 7.013C6.50199 7.013 1.00399 8.074 0.93899 10.39V10.413V10.435C0.93899 10.935 1.00399 11.712 1.09099 12.491C1.04796 12.5363 1.01159 12.5875 0.982989 12.643C-0.337011 15.911 -0.164008 20.262 1.39399 22.816C1.82342 23.5315 2.42634 24.1272 3.14699 24.548C3.44699 26.972 3.70999 29.048 3.79599 29.57C4.14199 31.47 6.783 32.449 11.653 32.449C14.337 32.449 18.969 32.059 19.51 29.57V29.527C19.64 28.401 20.765 19.505 21.11 16.107C21.5043 15.799 21.7922 15.3751 21.933 14.895V14.852C21.955 14.744 22.323 11.652 22.323 10.415L22.325 10.413ZM14.725 16.907C15.115 16.084 15.331 15.5 15.353 15.457C15.3772 15.3873 15.3874 15.3136 15.383 15.24C15.3787 15.1664 15.3599 15.0943 15.3277 15.028C15.2955 14.9616 15.2506 14.9023 15.1955 14.8533C15.1404 14.8043 15.0762 14.7667 15.0065 14.7425C14.9368 14.7183 14.8631 14.7081 14.7895 14.7125C14.7159 14.7168 14.6438 14.7356 14.5775 14.7678C14.5111 14.7999 14.4518 14.8449 14.4028 14.9C14.3538 14.9551 14.3162 15.0193 14.292 15.089C14.27 15.111 13.967 15.912 13.405 17.015C12.842 17.037 12.258 17.058 11.63 17.058C5.89399 17.058 2.68999 15.889 2.45199 14.699C2.40899 14.656 2.27899 13.357 2.15199 12.123C4.05199 13.292 7.95199 13.833 11.633 13.833C15.291 13.833 19.144 13.292 21.07 12.145C20.983 13.245 20.854 14.483 20.81 14.656C20.637 15.455 18.646 16.537 14.728 16.905L14.725 16.907ZM12.777 18.162C11.219 20.846 8.51299 24.262 4.91999 23.985C4.66083 23.9608 4.40597 23.9027 4.16199 23.812C3.83699 21.128 3.51299 18.531 3.33899 16.912C5.09199 17.735 7.94899 18.189 11.629 18.189C12.022 18.182 12.412 18.182 12.78 18.16L12.777 18.162ZM11.633 8.095C17.997 8.095 21.179 9.545 21.222 10.389C21.179 11.233 17.954 12.683 11.633 12.683C5.26899 12.683 2.08699 11.233 2.04399 10.389C2.08699 9.567 5.26899 8.095 11.633 8.095ZM2.347 22.251C1.21487 20.0509 0.885619 17.5248 1.41599 15.108C1.56084 15.5333 1.82376 15.9086 2.17399 16.19C2.30399 17.619 2.62899 20.39 2.95299 23.052C2.72883 22.8025 2.52611 22.5346 2.347 22.251ZM18.429 29.373C18.191 30.373 16.308 31.386 11.629 31.386C5.82899 31.386 4.96199 29.979 4.82899 29.416C4.65599 28.052 4.48299 26.537 4.28799 24.979C4.45118 25.022 4.61922 25.0439 4.78799 25.044C4.96597 25.0798 5.14759 25.0942 5.32899 25.087C7.90499 25.087 10.459 23.464 12.688 20.412C13.2125 19.6632 13.6898 18.8823 14.117 18.074C16.1181 17.9946 18.0894 17.5623 19.94 16.797C19.641 19.589 18.97 25.325 18.429 29.373Z" fill="#18475C"/>
<path d="M9.70498 1.27698H8.40498L7.64697 10.26C8.09107 10.4493 8.57154 10.5381 9.05398 10.52C9.53554 10.527 10.0137 10.4386 10.461 10.26L9.70498 1.27698Z" fill="#DCDBDB"/>
<path d="M9.05602 11.017C8.48026 11.0417 7.90739 10.9228 7.38902 10.671C7.31162 10.6224 7.24741 10.5554 7.20206 10.476C7.15671 10.3967 7.13163 10.3074 7.12903 10.216L7.88702 1.23298C7.90086 1.10934 7.95924 0.994966 8.05125 0.91123C8.14327 0.827494 8.26263 0.780129 8.38702 0.777985H9.68703C9.81142 0.780129 9.93078 0.827494 10.0228 0.91123C10.1148 0.994966 10.1732 1.10934 10.187 1.23298L10.945 10.216C10.9459 10.3142 10.9227 10.4112 10.8774 10.4984C10.832 10.5856 10.766 10.6603 10.685 10.716C10.1639 10.911 9.61247 11.0129 9.05602 11.017ZM8.14703 9.91698C8.44484 9.98794 8.74987 10.0242 9.05602 10.025C9.36117 10.0103 9.66492 9.97418 9.96503 9.91698L9.25103 1.75698H8.88303L8.14703 9.91698Z" fill="#18475C"/>
<path d="M5.52792 0.518982H4.22792L3.47192 10.238C3.90812 10.455 4.39213 10.5582 4.87892 10.538C5.36456 10.5456 5.84562 10.443 6.28593 10.238L5.52792 0.518982Z" fill="#DCDBDB"/>
<path d="M4.89593 11.017C4.31409 11.0527 3.73455 10.9171 3.22893 10.627C3.15435 10.5771 3.09348 10.5093 3.0519 10.4298C3.01032 10.3503 2.98935 10.2617 2.99093 10.172L3.74893 0.452986C3.76276 0.329343 3.82114 0.214967 3.91316 0.131231C4.00518 0.0474957 4.12454 0.000130466 4.24893 -0.00201416H5.54893C5.67332 0.000130466 5.79269 0.0474957 5.8847 0.131231C5.97672 0.214967 6.03509 0.329343 6.04893 0.452986L6.80693 10.172C6.80976 10.2706 6.78737 10.3682 6.74187 10.4558C6.69636 10.5433 6.62926 10.6177 6.54693 10.672C6.02488 10.8952 5.46368 11.0125 4.89593 11.017ZM3.98693 9.91698C4.28048 10.0096 4.58884 10.0463 4.89593 10.025C5.20491 10.021 5.51147 9.96977 5.80493 9.87299L5.09593 0.999985H4.70593L3.98693 9.91698Z" fill="#18475C"/>
</svg>
