<svg width="766" height="766" viewBox="0 0 766 766" fill="none" xmlns="http://www.w3.org/2000/svg">
<path d="M137.172 510.314C125.72 416.78 181.208 292.466 238.739 241.131C342.6 148.457 428.883 166.378 495.991 199.574C563.1 232.77 572.688 343.589 619.026 393.73C665.363 443.871 691.722 511.313 621.416 578.449C551.111 645.586 494.395 611.472 420.894 607.217C347.393 602.964 249.926 636.485 197.194 607.335C160.374 586.981 142.235 551.653 137.172 510.314Z" fill="url(#paint0_linear_155_1165)"/>
<path d="M252.805 597.693C252.805 627.995 331.646 652.559 428.903 652.559C526.159 652.559 605.002 627.995 605.002 597.693C605.002 567.392 526.159 542.826 428.903 542.826C331.646 542.826 252.805 567.392 252.805 597.693Z" fill="#004B84"/>
<g opacity="0.5">
<path d="M252.805 597.693C252.805 627.995 331.646 652.559 428.903 652.559C526.159 652.559 605.002 627.995 605.002 597.693C605.002 567.392 526.159 542.826 428.903 542.826C331.646 542.826 252.805 567.392 252.805 597.693Z" fill="url(#paint1_linear_155_1165)"/>
</g>
<path d="M443.781 355.789C443.781 355.789 483.689 351.062 509.945 371.542C536.2 392.021 558.779 477.613 558.255 518.571C557.729 559.531 542.501 580.009 504.167 596.814C465.835 613.615 394.421 607.314 354.513 594.713C314.604 582.11 301.478 538 302.003 514.371C302.527 490.741 328.783 463.435 337.71 457.659C346.635 451.883 371.841 439.805 384.445 420.9C397.047 401.998 415.425 361.039 443.781 355.789Z" fill="#2D6AE0"/>
<mask id="mask0_155_1165" style="mask-type:luminance" maskUnits="userSpaceOnUse" x="301" y="355" width="258" height="253">
<path d="M509.945 371.542C536.2 392.021 558.78 477.613 558.255 518.571C557.729 559.531 542.503 580.008 504.169 596.814C465.835 613.615 394.421 607.314 354.512 594.712C314.604 582.11 301.478 538 302.003 514.371C302.529 490.743 328.783 463.435 337.711 457.658C346.636 451.883 371.842 439.805 384.445 420.9C397.047 401.997 415.425 361.039 443.781 355.787C443.781 355.787 447.761 355.317 454.031 355.317C467.622 355.317 491.979 357.529 509.945 371.542Z" fill="white"/>
</mask>
<g mask="url(#mask0_155_1165)">
<path d="M347.194 591.922C362.284 589.885 380.178 585.788 393.724 577.564C422.322 560.202 429.472 527.518 439.684 515.262C449.898 503.006 468.282 504.028 476.452 490.75C484.624 477.474 471.346 379.425 494.836 373.297C501.148 371.651 505.9 371.117 509.491 371.207C509.641 371.32 509.796 371.426 509.945 371.541C536.2 392.021 558.78 477.613 558.255 518.571C557.729 559.53 542.501 580.009 504.169 596.812C465.835 613.615 394.421 607.314 354.512 594.712C351.963 593.908 349.527 592.97 347.194 591.922Z" fill="#2759BA"/>
</g>
<path d="M443.781 355.789C443.781 355.789 483.689 351.062 509.945 371.542C536.2 392.021 558.779 477.613 558.255 518.571C557.729 559.531 542.501 580.009 504.167 596.814C465.835 613.615 394.421 607.314 354.513 594.713C314.604 582.11 301.478 538 302.003 514.371C302.527 490.741 328.783 463.435 337.71 457.659C346.635 451.883 371.841 439.805 384.445 420.9C397.047 401.998 415.425 361.039 443.781 355.789Z" stroke="#1A2E35" stroke-miterlimit="10" stroke-linecap="round" stroke-linejoin="round"/>
<path d="M459.496 374.297C459.496 374.297 485.54 379.276 490.136 383.872C494.732 388.468 513.882 460.472 513.882 460.472C513.882 460.472 505.456 458.174 497.796 461.238C490.136 464.302 489.37 472.345 488.604 476.175C487.838 480.005 487.455 489.963 487.455 489.963C487.455 489.963 410.037 483.046 393.568 479.216C377.099 475.386 352.035 473.625 352.035 473.625C352.035 473.625 394.386 378.127 400.897 374.68C407.408 371.233 434.601 370.85 438.431 371.616C442.261 372.382 459.496 374.297 459.496 374.297Z" fill="#1A2E35" stroke="#1A2E35" stroke-miterlimit="10" stroke-linecap="round" stroke-linejoin="round"/>
<path d="M485.158 462.77L478.647 409.534" stroke="white" stroke-miterlimit="10" stroke-linecap="round" stroke-linejoin="round"/>
<path d="M480.177 423.705L471.369 412.215" stroke="white" stroke-miterlimit="10" stroke-linecap="round" stroke-linejoin="round"/>
<path d="M453.751 430.599C453.751 430.599 428.857 422.555 412.387 422.556" stroke="white" stroke-miterlimit="10" stroke-linecap="round" stroke-linejoin="round"/>
<path d="M430.252 408.64L431.919 421.406C431.919 421.406 427.707 421.406 427.324 423.321C426.94 425.236 428.856 427.152 428.856 427.152C428.856 427.152 416.983 433.662 415.451 441.323" stroke="white" stroke-miterlimit="10" stroke-linecap="round" stroke-linejoin="round"/>
<path d="M445.198 359.999C445.198 359.999 459.496 364.595 461.54 368.169C463.582 371.744 462.05 396.767 462.05 399.831C462.05 402.895 460.262 398.043 458.73 394.469C457.198 390.893 451.836 385.531 450.05 386.043C448.262 386.553 447.24 388.595 447.24 391.915C447.24 395.235 443.156 399.831 439.58 402.383C436.006 404.937 432.686 407.491 432.686 407.491C432.686 407.491 425.282 396.767 423.494 393.957C421.708 391.149 421.962 385.277 421.708 383.234C421.452 381.191 416.856 388.851 415.834 386.809C414.814 384.765 418.132 382.979 421.708 377.361C425.282 371.744 424.26 365.871 429.622 361.786C434.984 357.701 441.112 358.977 445.198 359.999Z" fill="white"/>
<mask id="mask1_155_1165" style="mask-type:luminance" maskUnits="userSpaceOnUse" x="415" y="358" width="48" height="50">
<path d="M445.198 359.999C445.198 359.999 459.496 364.596 461.538 368.169C463.58 371.744 462.05 396.767 462.05 399.831C462.05 402.895 460.262 398.044 458.73 394.469C457.198 390.893 451.836 385.531 450.048 386.043C448.262 386.553 447.24 388.595 447.24 391.915C447.24 395.235 443.154 399.831 439.58 402.383C436.004 404.938 432.686 407.491 432.686 407.491C432.686 407.491 425.28 396.767 423.494 393.957C421.708 391.15 421.962 385.278 421.708 383.234C421.58 382.213 420.367 383.617 419.059 385.022C417.749 386.426 416.344 387.83 415.834 386.809C414.814 384.766 418.132 382.979 421.708 377.362C425.28 371.744 424.26 365.871 429.622 361.785C432.442 359.639 435.473 358.972 438.307 358.972C440.864 358.972 443.26 359.514 445.198 359.999Z" fill="white"/>
</mask>
<g mask="url(#mask1_155_1165)">
<path d="M461.538 368.169C462.902 370.554 462.673 382.485 462.37 391.072C459.113 386.87 452.39 378.946 448.493 380.446C443.536 382.354 441.627 396.468 441.627 396.468L444.977 359.945C445.051 359.963 445.126 359.98 445.196 359.999C445.196 359.999 459.496 364.595 461.538 368.169Z" fill="#004B84"/>
<g opacity="0.5">
<path d="M461.538 368.169C462.902 370.554 462.673 382.485 462.37 391.072C459.113 386.87 452.39 378.946 448.493 380.446C443.536 382.354 441.627 396.468 441.627 396.468L444.977 359.945C445.051 359.963 445.126 359.98 445.196 359.999C445.196 359.999 459.496 364.595 461.538 368.169Z" fill="white"/>
</g>
</g>
<path d="M445.198 359.999C445.198 359.999 459.496 364.595 461.54 368.169C463.582 371.744 462.05 396.767 462.05 399.831C462.05 402.895 460.262 398.043 458.73 394.469C457.198 390.893 451.836 385.531 450.05 386.043C448.262 386.553 447.24 388.595 447.24 391.915C447.24 395.235 443.156 399.831 439.58 402.383C436.006 404.937 432.686 407.491 432.686 407.491C432.686 407.491 425.282 396.767 423.494 393.957C421.708 391.149 421.962 385.277 421.708 383.234C421.452 381.191 416.856 388.851 415.834 386.809C414.814 384.765 418.132 382.979 421.708 377.361C425.282 371.744 424.26 365.871 429.622 361.786C434.984 357.701 441.112 358.977 445.198 359.999Z" stroke="#1A2E35" stroke-miterlimit="10" stroke-linecap="round" stroke-linejoin="round"/>
<path d="M479.029 463.536C479.029 463.536 487.838 450.897 498.562 449.748C509.286 448.599 522.308 457.408 522.691 460.472C523.074 463.536 525.755 480.005 523.84 482.303C521.925 484.601 514.648 486.516 500.477 481.92C486.306 477.324 480.561 471.579 479.029 463.536Z" fill="white"/>
<mask id="mask2_155_1165" style="mask-type:luminance" maskUnits="userSpaceOnUse" x="479" y="449" width="46" height="36">
<path d="M522.691 460.472C523.074 463.537 525.755 480.005 523.84 482.304C521.925 484.601 514.648 486.516 500.478 481.92C486.306 477.325 480.561 471.579 479.029 463.537C479.029 463.537 487.838 450.897 498.562 449.749C499.213 449.679 499.872 449.646 500.535 449.646C510.818 449.645 522.331 457.593 522.691 460.472Z" fill="white"/>
</mask>
<g mask="url(#mask2_155_1165)">
<path d="M514.867 481.912C514.867 481.912 517.919 473.138 516.393 470.088C514.867 467.036 508.763 462.459 504.949 457.881C501.134 453.303 513.882 460.472 514.484 457.881C514.971 455.796 507.769 451.638 504.932 450.091C513.848 451.797 522.381 458.001 522.691 460.472C523.074 463.536 525.755 480.005 523.84 482.303C522.85 483.488 520.42 484.564 516.362 484.703C515.438 483.093 514.867 481.912 514.867 481.912Z" fill="#004B84"/>
<g opacity="0.5">
<path d="M514.867 481.912C514.867 481.912 517.919 473.138 516.393 470.088C514.867 467.036 508.763 462.459 504.949 457.881C501.134 453.303 513.882 460.472 514.484 457.881C514.971 455.796 507.769 451.638 504.932 450.091C513.848 451.797 522.381 458.001 522.691 460.472C523.074 463.536 525.755 480.005 523.84 482.303C522.85 483.488 520.42 484.564 516.362 484.703C515.438 483.093 514.867 481.912 514.867 481.912Z" fill="white"/>
</g>
</g>
<path d="M479.029 463.536C479.029 463.536 487.838 450.897 498.562 449.748C509.286 448.599 522.308 457.408 522.691 460.472C523.074 463.536 525.755 480.005 523.84 482.303C521.925 484.601 514.648 486.516 500.477 481.92C486.306 477.324 480.561 471.579 479.029 463.536Z" stroke="#1A2E35" stroke-miterlimit="10" stroke-linecap="round" stroke-linejoin="round"/>
<path d="M508.903 466.983C508.903 466.983 523.276 472.688 523.84 483.835C524.152 490.003 513.882 492.644 503.158 492.644C492.434 492.644 477.114 479.239 467.156 473.494C457.198 467.749 434.218 454.344 431.537 453.195C428.856 452.046 419.664 455.11 415.834 456.259C412.004 457.408 404.727 457.408 404.727 457.408C404.727 457.408 399.365 465.834 396.684 465.834C394.003 465.834 402.429 453.195 403.578 450.514C404.727 447.833 423.494 441.705 425.792 441.705C428.09 441.705 481.71 455.11 489.753 458.174C497.796 461.238 508.903 466.983 508.903 466.983Z" fill="white"/>
<mask id="mask3_155_1165" style="mask-type:luminance" maskUnits="userSpaceOnUse" x="396" y="441" width="128" height="52">
<path d="M489.753 458.175C497.796 461.238 508.903 466.984 508.903 466.984C508.903 466.984 523.276 472.688 523.84 483.836C524.151 490.004 513.882 492.645 503.158 492.645C492.434 492.645 477.114 479.239 467.156 473.495C457.198 467.749 434.218 454.344 431.537 453.196C428.856 452.046 419.664 455.11 415.834 456.26C412.004 457.408 404.727 457.408 404.727 457.408C404.727 457.408 399.365 465.834 396.684 465.834C394.003 465.834 402.429 453.196 403.578 450.514C404.727 447.834 423.494 441.705 425.792 441.705C428.09 441.705 481.71 455.11 489.753 458.175Z" fill="white"/>
</mask>
<g mask="url(#mask3_155_1165)">
<path d="M478.865 465.388C456.964 454.437 425.792 441.705 425.792 441.705C428.09 441.705 481.71 455.11 489.753 458.174C497.796 461.238 508.903 466.983 508.903 466.983C508.903 466.983 523.276 472.688 523.84 483.835C524.152 490.003 513.882 492.644 503.158 492.644C492.434 492.644 477.114 479.239 467.156 473.494C465.466 472.519 463.396 471.321 461.12 470.004C475.754 471.887 495.303 473.607 478.865 465.388Z" fill="#004B84"/>
<g opacity="0.5">
<path d="M478.865 465.388C456.964 454.437 425.792 441.705 425.792 441.705C428.09 441.705 481.71 455.11 489.753 458.174C497.796 461.238 508.903 466.983 508.903 466.983C508.903 466.983 523.276 472.688 523.84 483.835C524.152 490.003 513.882 492.644 503.158 492.644C492.434 492.644 477.114 479.239 467.156 473.494C465.466 472.519 463.396 471.321 461.12 470.004C475.754 471.887 495.303 473.607 478.865 465.388Z" fill="white"/>
</g>
</g>
<path d="M508.903 466.983C508.903 466.983 523.276 472.688 523.84 483.835C524.152 490.003 513.882 492.644 503.158 492.644C492.434 492.644 477.114 479.239 467.156 473.494C457.198 467.749 434.218 454.344 431.537 453.195C428.856 452.046 419.664 455.11 415.834 456.259C412.004 457.408 404.727 457.408 404.727 457.408C404.727 457.408 399.365 465.834 396.684 465.834C394.003 465.834 402.429 453.195 403.578 450.514C404.727 447.833 423.494 441.705 425.792 441.705C428.09 441.705 481.71 455.11 489.753 458.174C497.796 461.238 508.903 466.983 508.903 466.983Z" stroke="#1A2E35" stroke-miterlimit="10" stroke-linecap="round" stroke-linejoin="round"/>
<path d="M396.886 381.799L408.558 447.45L324.297 447.833L311.764 385.578C311.293 383.231 313.044 381.024 315.439 380.95L392.963 378.611C394.879 378.553 396.551 379.91 396.886 381.799Z" fill="white" stroke="#1A2E35" stroke-miterlimit="10" stroke-linecap="round" stroke-linejoin="round"/>
<path d="M408.556 447.45L449.585 476.468L355.75 473.787L324.297 447.834L408.556 447.45Z" fill="white"/>
<mask id="mask4_155_1165" style="mask-type:luminance" maskUnits="userSpaceOnUse" x="324" y="447" width="126" height="30">
<path d="M449.585 476.469L355.75 473.786L324.295 447.834L408.557 447.45L449.585 476.469Z" fill="white"/>
</mask>
<g mask="url(#mask4_155_1165)">
<path d="M408.556 447.45L449.585 476.468L355.75 473.787L324.297 447.834L408.556 447.45Z" fill="#004B84"/>
<g opacity="0.5">
<path d="M408.556 447.45L449.585 476.468L355.75 473.787L324.297 447.834L408.556 447.45Z" fill="white"/>
</g>
</g>
<path d="M408.556 447.45L449.585 476.468L355.75 473.787L324.297 447.834L408.556 447.45Z" stroke="#1A2E35" stroke-miterlimit="10" stroke-linecap="round" stroke-linejoin="round"/>
<path d="M377.534 476.175C377.534 476.175 343.83 446.684 310.509 436.726C277.188 426.768 270.294 428.3 271.06 443.237C271.826 458.174 287.912 536.306 298.636 556.222C309.36 576.138 322.765 612.523 322.382 619.417C321.999 626.311 308.977 646.61 297.487 653.887C285.997 661.164 287.146 669.973 294.423 671.505C301.7 673.037 310.126 675.718 335.021 659.632C359.916 643.546 370.257 620.566 368.725 614.821C367.193 609.076 351.107 601.416 344.596 589.926C338.085 578.436 327.361 535.54 326.595 516.007C325.829 496.474 318.935 480.005 318.935 480.005C318.935 480.005 361.065 487.665 373.321 495.325L377.534 476.175Z" fill="white"/>
<mask id="mask5_155_1165" style="mask-type:luminance" maskUnits="userSpaceOnUse" x="271" y="430" width="107" height="243">
<path d="M310.507 436.726C343.83 446.684 377.532 476.175 377.532 476.175L373.321 495.325C361.065 487.666 318.933 480.005 318.933 480.005C318.933 480.005 325.827 496.474 326.595 516.007C327.359 535.541 338.083 578.436 344.594 589.926C351.107 601.417 367.191 609.076 368.723 614.822C370.257 620.566 359.916 643.546 335.021 659.633C310.124 675.718 301.698 673.037 294.423 671.505C287.146 669.974 285.995 661.164 297.487 653.887C308.977 646.61 321.999 626.311 322.38 619.417C322.765 612.523 309.36 576.138 298.636 556.223C287.91 536.306 271.826 458.175 271.06 443.237C270.614 434.555 272.756 430.402 281.174 430.402C287.238 430.402 296.557 432.557 310.507 436.726Z" fill="white"/>
</mask>
<g mask="url(#mask5_155_1165)">
<path d="M377.534 476.175C377.534 476.175 343.83 446.684 310.509 436.726C277.188 426.768 270.294 428.3 271.06 443.237C271.826 458.174 287.912 536.306 298.636 556.222C309.36 576.138 322.765 612.523 322.382 619.417C321.999 626.311 308.977 646.61 297.487 653.887C285.997 661.164 287.146 669.973 294.423 671.505C301.7 673.037 310.126 675.718 335.021 659.632C359.916 643.546 370.257 620.566 368.725 614.821C367.193 609.076 351.107 601.416 344.596 589.926C338.085 578.436 327.361 535.54 326.595 516.007C325.829 496.474 318.935 480.005 318.935 480.005C318.935 480.005 361.065 487.665 373.321 495.325L377.534 476.175Z" fill="#004B84"/>
<g opacity="0.5">
<path d="M377.534 476.175C377.534 476.175 343.83 446.684 310.509 436.726C277.188 426.768 270.294 428.3 271.06 443.237C271.826 458.174 287.912 536.306 298.636 556.222C309.36 576.138 322.765 612.523 322.382 619.417C321.999 626.311 308.977 646.61 297.487 653.887C285.997 661.164 287.146 669.973 294.423 671.505C301.7 673.037 310.126 675.718 335.021 659.632C359.916 643.546 370.257 620.566 368.725 614.821C367.193 609.076 351.107 601.416 344.596 589.926C338.085 578.436 327.361 535.54 326.595 516.007C325.829 496.474 318.935 480.005 318.935 480.005C318.935 480.005 361.065 487.665 373.321 495.325L377.534 476.175Z" fill="white"/>
</g>
</g>
<path d="M377.534 476.175C377.534 476.175 343.83 446.684 310.509 436.726C277.188 426.768 270.294 428.3 271.06 443.237C271.826 458.174 287.912 536.306 298.636 556.222C309.36 576.138 322.765 612.523 322.382 619.417C321.999 626.311 308.977 646.61 297.487 653.887C285.997 661.164 287.146 669.973 294.423 671.505C301.7 673.037 310.126 675.718 335.021 659.632C359.916 643.546 370.257 620.566 368.725 614.821C367.193 609.076 351.107 601.416 344.596 589.926C338.085 578.436 327.361 535.54 326.595 516.007C325.829 496.474 318.935 480.005 318.935 480.005C318.935 480.005 361.065 487.665 373.321 495.325L377.534 476.175Z" stroke="#1A2E35" stroke-miterlimit="10" stroke-linecap="round" stroke-linejoin="round"/>
<path d="M344.596 589.926C345.083 590.787 345.639 591.617 346.223 592.438C340.316 593.1 331.793 595.193 324.68 601.416C322.606 603.233 320.893 604.916 319.444 606.48C314.958 592.164 306.143 570.164 298.636 556.222C287.912 536.306 271.826 458.174 271.06 443.237C270.294 428.3 277.188 426.768 310.509 436.726C343.83 446.684 377.534 476.175 377.534 476.175L373.321 495.325C361.065 487.665 318.935 480.005 318.935 480.005C318.935 480.005 325.829 496.474 326.595 516.007C327.361 535.54 338.085 578.436 344.596 589.926Z" fill="white"/>
<path d="M344.596 589.926C345.083 590.787 345.639 591.617 346.223 592.438C340.316 593.1 331.793 595.193 324.68 601.416C322.606 603.233 320.893 604.916 319.444 606.48C314.958 592.164 306.143 570.164 298.636 556.222C287.912 536.306 271.826 458.174 271.06 443.237C270.294 428.3 277.188 426.768 310.509 436.726C343.83 446.684 377.534 476.175 377.534 476.175L373.321 495.325C361.065 487.665 318.935 480.005 318.935 480.005C318.935 480.005 325.829 496.474 326.595 516.007C327.361 535.54 338.085 578.436 344.596 589.926Z" stroke="#1A2E35" stroke-miterlimit="10" stroke-linecap="round" stroke-linejoin="round"/>
<path d="M344.596 589.926C345.083 590.787 345.639 591.617 346.223 592.438C340.316 593.1 331.793 595.193 324.68 601.416C322.606 603.233 320.893 604.916 319.444 606.48C312.101 596.627 303.846 565.501 294.529 552.698C270.453 519.621 271.826 458.174 271.06 443.237C270.294 428.3 277.188 426.768 310.509 436.726C343.83 446.684 377.534 476.175 377.534 476.175L373.321 495.325C361.065 487.665 318.935 480.005 318.935 480.005C318.935 480.005 325.829 496.474 326.595 516.007C327.361 535.54 338.085 578.436 344.596 589.926Z" fill="#1A2E35"/>
<mask id="mask6_155_1165" style="mask-type:luminance" maskUnits="userSpaceOnUse" x="271" y="430" width="107" height="177">
<path d="M310.507 436.726C343.83 446.684 377.532 476.175 377.532 476.175L373.321 495.325C361.065 487.666 318.933 480.005 318.933 480.005C318.933 480.005 325.827 496.474 326.595 516.007C327.359 535.541 338.083 578.436 344.594 589.926C345.083 590.787 345.639 591.617 346.223 592.438C340.316 593.102 331.792 595.194 324.68 601.417C322.604 603.233 320.893 604.918 319.442 606.48C312.101 596.627 303.846 565.501 294.529 552.698C270.453 519.622 271.826 458.175 271.06 443.237C270.614 434.555 272.759 430.402 281.174 430.402C287.238 430.402 296.556 432.556 310.507 436.726Z" fill="white"/>
</mask>
<g mask="url(#mask6_155_1165)">
<g opacity="0.53">
<path d="M344.596 589.926C345.083 590.787 345.639 591.617 346.223 592.438C340.316 593.1 331.793 595.193 324.68 601.416C322.606 603.233 320.893 604.916 319.444 606.48C312.101 596.627 303.847 565.501 294.529 552.698C270.454 519.621 271.826 458.174 271.06 443.237C270.294 428.3 277.188 426.768 310.509 436.726C343.83 446.684 377.534 476.175 377.534 476.175L373.321 495.325C361.065 487.665 318.935 480.005 318.935 480.005C318.935 480.005 325.829 496.474 326.595 516.007C327.361 535.54 338.085 578.436 344.596 589.926Z" fill="white"/>
</g>
<g opacity="0.14">
<path d="M287.25 441.216C287.856 435.776 347.095 460.848 372.077 471.675C375.544 474.437 377.534 476.175 377.534 476.175L373.321 495.325C361.065 487.665 318.935 480.005 318.935 480.005C318.935 480.005 325.829 496.474 326.595 516.007C327.361 535.54 338.085 578.436 344.596 589.926C345.083 590.787 345.638 591.618 346.223 592.437C342.775 592.824 338.434 593.707 334.005 595.605C324.728 575.989 314.897 553.248 310.23 535.434C301.804 503.262 286.484 448.11 287.25 441.216Z" fill="black"/>
</g>
<path d="M318.935 480.004C318.935 480.004 307.445 456.641 297.487 447.067" stroke="#1A2E35" stroke-miterlimit="10" stroke-linecap="round" stroke-linejoin="round"/>
</g>
<path d="M344.596 589.926C345.083 590.787 345.639 591.617 346.223 592.438C340.316 593.1 331.793 595.193 324.68 601.416C322.606 603.233 320.893 604.916 319.444 606.48C312.101 596.627 303.846 565.501 294.529 552.698C270.453 519.621 271.826 458.174 271.06 443.237C270.294 428.3 277.188 426.768 310.509 436.726C343.83 446.684 377.534 476.175 377.534 476.175L373.321 495.325C361.065 487.665 318.935 480.005 318.935 480.005C318.935 480.005 325.829 496.474 326.595 516.007C327.361 535.54 338.085 578.436 344.596 589.926Z" stroke="#1A2E35" stroke-miterlimit="10" stroke-linecap="round" stroke-linejoin="round"/>
<path d="M428.029 507.018C428.029 507.018 409.125 506.493 391.797 500.192C374.468 493.891 405.974 482.339 418.052 488.641C430.129 494.94 428.029 507.018 428.029 507.018Z" fill="#1A2E35" stroke="#1A2E35" stroke-miterlimit="10" stroke-linecap="round" stroke-linejoin="round"/>
<path d="M477.88 482.303C477.88 482.303 490.136 489.197 494.349 496.857C498.562 504.517 480.434 517.283 461.284 516.517C442.134 515.751 407.025 494.942 407.025 494.942C407.025 494.942 406.642 528.646 400.131 540.902C393.62 553.158 363.746 583.032 351.873 590.692C340 598.352 300.168 627.077 294.04 631.673C287.912 636.269 276.422 644.695 273.741 645.078C271.06 645.461 243.101 611.374 236.59 599.884C230.079 588.394 224.334 564.265 226.632 558.903C228.93 553.541 233.526 558.137 238.122 561.967C242.718 565.797 284.848 593.756 288.678 595.671C292.508 597.586 295.189 598.352 295.189 598.352C295.189 598.352 329.659 565.414 348.043 540.136C366.427 514.858 367.959 482.303 374.853 470.047C381.747 457.791 391.705 452.429 406.642 453.961C421.579 455.493 452.602 463.536 477.88 482.303Z" fill="white"/>
<mask id="mask7_155_1165" style="mask-type:luminance" maskUnits="userSpaceOnUse" x="226" y="453" width="269" height="193">
<path d="M406.642 453.961C421.579 455.493 452.602 463.537 477.88 482.304C477.88 482.304 490.137 489.198 494.349 496.857C498.562 504.518 480.432 517.285 461.282 516.517C442.134 515.753 407.025 494.942 407.025 494.942C407.025 494.942 406.642 528.647 400.131 540.903C393.62 553.159 363.744 583.032 351.871 590.693C340 598.352 300.166 627.078 294.04 631.673C287.91 636.269 276.422 644.695 273.741 645.078C271.06 645.461 243.099 611.375 236.59 599.884C230.079 588.394 224.332 564.265 226.632 558.903C228.93 553.541 233.526 558.138 238.12 561.967C242.718 565.797 284.848 593.756 288.678 595.671C292.508 597.587 295.189 598.352 295.189 598.352C295.189 598.352 329.659 565.414 348.041 540.136C366.427 514.859 367.959 482.304 374.853 470.048C380.981 459.154 389.531 453.707 401.845 453.707C403.385 453.707 404.981 453.791 406.642 453.961Z" fill="white"/>
</mask>
<g mask="url(#mask7_155_1165)">
<path d="M315.817 615.896C305.588 623.224 296.681 629.692 294.038 631.673C287.91 636.269 276.42 644.695 273.739 645.078C272.789 645.214 268.653 641.004 263.427 635.014L307.29 606.801L315.817 615.896Z" fill="#004B84"/>
<g opacity="0.5">
<path d="M315.817 615.896C305.588 623.224 296.681 629.692 294.038 631.673C287.91 636.269 276.42 644.695 273.739 645.078C272.789 645.214 268.653 641.004 263.427 635.014L307.29 606.801L315.817 615.896Z" fill="white"/>
</g>
</g>
<path d="M477.88 482.303C477.88 482.303 490.136 489.197 494.349 496.857C498.562 504.517 480.434 517.283 461.284 516.517C442.134 515.751 407.025 494.942 407.025 494.942C407.025 494.942 406.642 528.646 400.131 540.902C393.62 553.158 363.746 583.032 351.873 590.692C340 598.352 300.168 627.077 294.04 631.673C287.912 636.269 276.422 644.695 273.741 645.078C271.06 645.461 243.101 611.374 236.59 599.884C230.079 588.394 224.334 564.265 226.632 558.903C228.93 553.541 233.526 558.137 238.122 561.967C242.718 565.797 284.848 593.756 288.678 595.671C292.508 597.586 295.189 598.352 295.189 598.352C295.189 598.352 329.659 565.414 348.043 540.136C366.427 514.858 367.959 482.303 374.853 470.047C381.747 457.791 391.705 452.429 406.642 453.961C421.579 455.493 452.602 463.536 477.88 482.303Z" stroke="#1A2E35" stroke-miterlimit="10" stroke-linecap="round" stroke-linejoin="round"/>
<path d="M297.567 596.049C305.666 588.149 336.05 547.381 348.041 523.946C365.613 489.6 367.504 477.895 374.398 465.639C381.292 453.383 391.705 452.429 406.642 453.961C421.579 455.493 448.303 458.264 481.094 476.863C481.094 476.863 494.859 484.345 499.072 492.005C503.285 499.665 487.947 518.954 461.282 516.517C442.197 514.774 407.025 494.942 407.025 494.942C407.025 494.942 406.642 528.646 400.131 540.902C393.62 553.158 363.744 583.032 351.871 590.692C344.343 595.55 325.576 608.874 311.284 619.149C307.699 606.323 301.368 599.296 297.567 596.049Z" fill="#1A2E35"/>
<mask id="mask8_155_1165" style="mask-type:luminance" maskUnits="userSpaceOnUse" x="297" y="453" width="203" height="167">
<path d="M406.642 453.961C421.579 455.493 448.303 458.266 481.096 476.863C481.096 476.863 494.859 484.345 499.072 492.005C503.285 499.665 487.947 518.954 461.282 516.517C442.197 514.775 407.025 494.942 407.025 494.942C407.025 494.942 406.642 528.647 400.131 540.903C393.62 553.159 363.744 583.032 351.871 590.693C344.343 595.55 325.578 608.875 311.284 619.15C307.701 606.324 301.369 599.297 297.567 596.049C305.668 588.149 336.052 547.382 348.041 523.945C365.615 489.6 367.506 477.895 374.4 465.639C379.768 456.096 387.27 453.405 397.381 453.405C400.254 453.405 403.336 453.622 406.642 453.961Z" fill="white"/>
</mask>
<g mask="url(#mask8_155_1165)">
<g opacity="0.53">
<path d="M297.567 596.049C305.666 588.149 336.05 547.381 348.041 523.946C365.613 489.6 367.504 477.895 374.398 465.639C381.292 453.383 391.705 452.429 406.642 453.961C421.579 455.493 448.303 458.264 481.094 476.863C481.094 476.863 494.859 484.345 499.072 492.005C503.285 499.665 487.947 518.954 461.282 516.517C442.197 514.774 407.025 494.942 407.025 494.942C407.025 494.942 406.642 528.646 400.131 540.902C393.62 553.158 363.744 583.032 351.871 590.692C344.343 595.55 325.576 608.874 311.284 619.149C307.699 606.323 301.368 599.296 297.567 596.049Z" fill="white"/>
</g>
<g opacity="0.14">
<path d="M374.574 541.562C386.064 512.454 379.17 454.238 411.342 461.898C434.786 467.481 477.748 487.295 499.337 497.638C496.788 506.427 482.692 518.475 461.284 516.517C442.198 514.775 407.025 494.942 407.025 494.942C407.025 494.942 406.642 528.646 400.131 540.902C393.62 553.158 363.746 583.032 351.873 590.692C344.345 595.55 325.578 608.875 311.284 619.15C309.835 613.963 307.935 609.739 305.936 606.317C334.462 585.244 368.16 557.809 374.574 541.562Z" fill="black"/>
</g>
<path d="M407.024 494.943L408.173 475.027" stroke="#1A2E35" stroke-miterlimit="10" stroke-linecap="round" stroke-linejoin="round"/>
</g>
<path d="M297.567 596.049C305.666 588.149 336.05 547.381 348.041 523.946C365.613 489.6 367.504 477.895 374.398 465.639C381.292 453.383 391.705 452.429 406.642 453.961C421.579 455.493 448.303 458.264 481.094 476.863C481.094 476.863 494.859 484.345 499.072 492.005C503.285 499.665 487.947 518.954 461.282 516.517C442.197 514.774 407.025 494.942 407.025 494.942C407.025 494.942 406.642 528.646 400.131 540.902C393.62 553.158 363.744 583.032 351.871 590.692C344.343 595.55 325.576 608.874 311.284 619.149C307.699 606.323 301.368 599.296 297.567 596.049Z" stroke="#1A2E35" stroke-miterlimit="10" stroke-linecap="round" stroke-linejoin="round"/>
<path d="M294.04 631.673C287.912 636.269 276.422 644.695 273.741 645.078C271.06 645.461 243.101 611.374 236.59 599.884C230.079 588.394 224.334 564.265 226.632 558.903C228.93 553.541 233.526 558.137 238.122 561.967C242.718 565.797 284.848 593.756 288.678 595.671C289.681 596.172 290.599 596.591 291.417 596.942C292.526 599.038 293.862 602.295 292.891 604.48C291.359 607.927 284.848 612.523 284.848 612.523L296.434 629.903C295.405 630.66 294.584 631.265 294.04 631.673Z" fill="#1A2E35"/>
<path d="M294.04 631.673C287.912 636.269 276.422 644.695 273.741 645.078C271.06 645.461 243.101 611.374 236.59 599.884C230.079 588.394 224.334 564.265 226.632 558.903C228.93 553.541 233.526 558.137 238.122 561.967C242.718 565.797 284.848 593.756 288.678 595.671C289.681 596.172 290.599 596.591 291.417 596.942C292.526 599.038 293.862 602.295 292.891 604.48C291.359 607.927 284.848 612.523 284.848 612.523L296.434 629.903C295.405 630.66 294.584 631.265 294.04 631.673Z" stroke="#1A2E35" stroke-miterlimit="10" stroke-linecap="round" stroke-linejoin="round"/>
<path d="M236.59 599.884C230.079 588.394 224.334 564.265 226.632 558.903C227.963 555.797 230.068 556.041 232.495 557.533C230.883 564.7 232.512 578.505 240.42 593.373C247.478 606.64 269.295 630.089 280.286 641.51C277.303 643.475 274.813 644.925 273.741 645.078C271.06 645.461 243.101 611.374 236.59 599.884Z" fill="white"/>
<mask id="mask9_155_1165" style="mask-type:luminance" maskUnits="userSpaceOnUse" x="226" y="556" width="55" height="90">
<path d="M232.495 557.533C230.883 564.701 232.51 578.505 240.42 593.373C247.478 606.641 269.295 630.089 280.286 641.51C277.303 643.475 274.813 644.926 273.741 645.078C271.06 645.461 243.099 611.375 236.59 599.884C230.079 588.394 224.332 564.265 226.632 558.903C227.381 557.155 228.375 556.469 229.535 556.469C230.434 556.469 231.433 556.882 232.495 557.533Z" fill="white"/>
</mask>
<g mask="url(#mask9_155_1165)">
<path d="M273.35 644.978C273.252 644.934 273.142 644.874 273.022 644.799C272.989 644.776 272.955 644.759 272.918 644.735C272.764 644.631 272.592 644.505 272.407 644.359C272.348 644.312 272.286 644.26 272.224 644.211C272.083 644.096 271.935 643.97 271.778 643.834C271.697 643.762 271.615 643.69 271.53 643.613C271.34 643.443 271.143 643.261 270.934 643.065C270.815 642.952 270.689 642.831 270.564 642.709C270.4 642.55 270.234 642.389 270.061 642.216C269.92 642.075 269.775 641.931 269.626 641.781C269.488 641.642 269.347 641.496 269.205 641.349C268.852 640.989 268.489 640.608 268.109 640.205C268.051 640.143 267.994 640.085 267.935 640.021C267.711 639.782 267.483 639.535 267.251 639.284L266.982 638.993C266.179 638.12 265.332 637.176 264.445 636.171C264.42 636.145 264.397 636.119 264.374 636.093C264.063 635.742 263.751 635.385 263.434 635.02L263.428 635.016L270.116 630.712C273.929 634.852 277.467 638.581 280.286 641.51L280.284 641.511C279.932 641.744 279.586 641.97 279.248 642.187C279.198 642.218 279.152 642.248 279.104 642.277C278.781 642.484 278.464 642.687 278.158 642.875C278.152 642.88 278.145 642.883 278.139 642.887C277.615 643.21 277.13 643.497 276.669 643.762C276.525 643.843 276.378 643.929 276.241 644.004C276.089 644.088 275.952 644.159 275.811 644.234C275.642 644.321 275.478 644.407 275.323 644.484C275.209 644.54 275.097 644.592 274.988 644.641C274.823 644.718 274.668 644.782 274.522 644.841C274.444 644.871 274.361 644.905 274.291 644.931C274.084 645.003 273.893 645.057 273.741 645.078C273.666 645.089 273.566 645.064 273.451 645.021C273.421 645.011 273.384 644.995 273.35 644.978Z" fill="#004B84"/>
<g opacity="0.5">
<path d="M273.35 644.978C273.252 644.934 273.142 644.874 273.022 644.799C272.989 644.776 272.955 644.759 272.918 644.735C272.764 644.631 272.592 644.505 272.407 644.359C272.348 644.312 272.286 644.26 272.224 644.211C272.083 644.096 271.935 643.97 271.778 643.834C271.697 643.762 271.615 643.69 271.53 643.613C271.34 643.443 271.143 643.261 270.934 643.065C270.815 642.952 270.689 642.831 270.564 642.709C270.4 642.55 270.234 642.389 270.061 642.216C269.92 642.075 269.775 641.931 269.626 641.781C269.488 641.642 269.347 641.496 269.205 641.349C268.852 640.989 268.489 640.608 268.109 640.205C268.051 640.143 267.994 640.085 267.935 640.021C267.711 639.782 267.483 639.535 267.251 639.284L266.982 638.993C266.179 638.12 265.332 637.176 264.445 636.171C264.42 636.145 264.397 636.119 264.374 636.093C264.063 635.742 263.751 635.385 263.434 635.02L263.428 635.016L270.116 630.712C273.929 634.852 277.467 638.581 280.286 641.51L280.284 641.511C279.932 641.744 279.586 641.97 279.248 642.187C279.198 642.218 279.152 642.248 279.104 642.277C278.781 642.484 278.464 642.687 278.158 642.875C278.152 642.88 278.145 642.883 278.139 642.887C277.615 643.21 277.13 643.497 276.669 643.762C276.525 643.843 276.378 643.929 276.241 644.004C276.089 644.088 275.952 644.159 275.811 644.234C275.642 644.321 275.478 644.407 275.323 644.484C275.209 644.54 275.097 644.592 274.988 644.641C274.823 644.718 274.668 644.782 274.522 644.841C274.444 644.871 274.361 644.905 274.291 644.931C274.084 645.003 273.893 645.057 273.741 645.078C273.666 645.089 273.566 645.064 273.451 645.021C273.421 645.011 273.384 644.995 273.35 644.978Z" fill="white"/>
</g>
</g>
<path d="M236.59 599.884C230.079 588.394 224.334 564.265 226.632 558.903C227.963 555.797 230.068 556.041 232.495 557.533C230.883 564.7 232.512 578.505 240.42 593.373C247.478 606.64 269.295 630.089 280.286 641.51C277.303 643.475 274.813 644.925 273.741 645.078C271.06 645.461 243.101 611.374 236.59 599.884Z" stroke="#1A2E35" stroke-miterlimit="10" stroke-linecap="round" stroke-linejoin="round"/>
<path d="M297.487 653.887C308.977 646.61 321.999 626.311 322.382 619.417C322.414 618.858 322.345 618.084 322.203 617.157C325.843 617.203 328.51 619.417 328.51 619.417C328.51 619.417 336.936 611.757 343.447 607.544C348.112 604.526 354.136 603.674 357.186 603.43C362.749 607.997 367.892 611.696 368.725 614.821C370.257 620.566 359.916 643.546 335.021 659.632C310.126 675.718 301.7 673.037 294.423 671.505C287.146 669.973 285.997 661.164 297.487 653.887Z" fill="#1A2E35"/>
<path d="M297.487 653.887C308.977 646.61 321.999 626.311 322.382 619.417C322.414 618.858 322.345 618.084 322.203 617.157C325.843 617.203 328.51 619.417 328.51 619.417C328.51 619.417 336.936 611.757 343.447 607.544C348.112 604.526 354.136 603.674 357.186 603.43C362.749 607.997 367.892 611.696 368.725 614.821C370.257 620.566 359.916 643.546 335.021 659.632C310.126 675.718 301.7 673.037 294.423 671.505C287.146 669.973 285.997 661.164 297.487 653.887Z" stroke="#1A2E35" stroke-miterlimit="10" stroke-linecap="round" stroke-linejoin="round"/>
<path d="M297.487 653.887C300.88 651.739 304.401 648.442 307.695 644.704C315.6 641.346 326.146 636.987 335.404 631.29C345.362 625.162 343.064 621.332 348.809 615.587C353.218 611.179 361.891 610.606 365.696 610.576C367.268 612.106 368.376 613.514 368.725 614.821C370.257 620.566 359.916 643.546 335.021 659.632C310.126 675.718 301.7 673.037 294.423 671.505C287.146 669.973 285.997 661.164 297.487 653.887Z" fill="white"/>
<mask id="mask10_155_1165" style="mask-type:luminance" maskUnits="userSpaceOnUse" x="288" y="610" width="81" height="63">
<path d="M368.723 614.822C370.257 620.566 359.916 643.546 335.021 659.633C310.124 675.718 301.698 673.037 294.423 671.505C287.146 669.974 285.995 661.164 297.487 653.887C300.88 651.739 304.399 648.444 307.695 644.704C315.6 641.347 326.144 636.987 335.404 631.29C345.362 625.163 343.062 621.332 348.809 615.587C353.218 611.181 361.891 610.606 365.696 610.576C367.268 612.105 368.376 613.516 368.723 614.822Z" fill="white"/>
</mask>
<g mask="url(#mask10_155_1165)">
<path d="M297.487 653.887C300.88 651.739 304.401 648.442 307.694 644.704C315.6 641.346 326.146 636.987 335.404 631.29C345.362 625.162 343.064 621.332 348.809 615.587C353.218 611.179 361.891 610.606 365.696 610.576C367.268 612.106 368.375 613.514 368.725 614.821C370.257 620.566 359.916 643.546 335.021 659.632C310.126 675.718 301.7 673.037 294.423 671.505C287.146 669.973 285.997 661.164 297.487 653.887Z" fill="#004B84"/>
<g opacity="0.5">
<path d="M297.487 653.887C300.88 651.739 304.401 648.442 307.694 644.704C315.6 641.346 326.146 636.987 335.404 631.29C345.362 625.162 343.064 621.332 348.809 615.587C353.218 611.179 361.891 610.606 365.696 610.576C367.268 612.106 368.375 613.514 368.725 614.821C370.257 620.566 359.916 643.546 335.021 659.632C310.126 675.718 301.7 673.037 294.423 671.505C287.146 669.973 285.997 661.164 297.487 653.887Z" fill="white"/>
</g>
</g>
<path d="M297.487 653.887C300.88 651.739 304.401 648.442 307.695 644.704C315.6 641.346 326.146 636.987 335.404 631.29C345.362 625.162 343.064 621.332 348.809 615.587C353.218 611.179 361.891 610.606 365.696 610.576C367.268 612.106 368.376 613.514 368.725 614.821C370.257 620.566 359.916 643.546 335.021 659.632C310.126 675.718 301.7 673.037 294.423 671.505C287.146 669.973 285.997 661.164 297.487 653.887Z" stroke="#1A2E35" stroke-miterlimit="10" stroke-linecap="round" stroke-linejoin="round"/>
<path d="M295.572 656.568C305.53 650.823 325.829 646.993 338.851 638.184C351.873 629.375 348.426 621.715 358.001 615.587C362.401 612.771 366.07 613.436 368.754 614.973C370.084 620.944 359.715 643.676 335.021 659.632C310.126 675.718 301.7 673.037 294.423 671.505C289.586 670.486 287.486 666.249 289.976 661.388C291.546 659.5 293.404 657.818 295.572 656.568Z" fill="#1A2E35"/>
<mask id="mask11_155_1165" style="mask-type:luminance" maskUnits="userSpaceOnUse" x="288" y="613" width="81" height="60">
<path d="M368.753 614.972C370.084 620.944 359.715 643.677 335.021 659.633C310.124 675.718 301.698 673.037 294.423 671.505C289.586 670.486 287.485 666.25 289.976 661.389C291.546 659.5 293.404 657.819 295.572 656.569C305.53 650.823 325.827 646.993 338.851 638.184C351.871 629.375 348.424 621.716 358.001 615.587C360.189 614.186 362.194 613.647 363.99 613.647C365.805 613.647 367.403 614.199 368.753 614.972Z" fill="white"/>
</mask>
<g mask="url(#mask11_155_1165)">
<g opacity="0.53">
<path d="M295.572 656.568C305.53 650.823 325.829 646.993 338.851 638.184C351.873 629.375 348.426 621.715 358.001 615.587C362.401 612.771 366.07 613.436 368.754 614.972C370.084 620.944 359.715 643.676 335.021 659.632C310.126 675.718 301.7 673.037 294.423 671.505C289.586 670.486 287.486 666.248 289.976 661.387C291.546 659.5 293.404 657.818 295.572 656.568Z" fill="white"/>
</g>
</g>
<path d="M295.572 656.568C305.53 650.823 325.829 646.993 338.851 638.184C351.873 629.375 348.426 621.715 358.001 615.587C362.401 612.771 366.07 613.436 368.754 614.973C370.084 620.944 359.715 643.676 335.021 659.632C310.126 675.718 301.7 673.037 294.423 671.505C289.586 670.486 287.486 666.249 289.976 661.388C291.546 659.5 293.404 657.818 295.572 656.568Z" stroke="#1A2E35" stroke-miterlimit="10" stroke-linecap="round" stroke-linejoin="round"/>
<path d="M486.424 583.308C486.424 583.308 479.073 574.381 478.022 581.207C476.973 588.034 478.548 600.636 483.798 605.362C489.05 610.087 491.676 602.736 491.676 602.736L488.524 598.534C488.524 598.534 485.898 603.786 483.798 595.386C481.699 586.983 487.999 588.034 487.999 588.034L486.424 583.308Z" fill="white" stroke="#1A2E35" stroke-miterlimit="10" stroke-linecap="round" stroke-linejoin="round"/>
<path d="M492.052 616.915C496.403 620.136 510.577 620.136 514.929 616.914C524.136 610.099 522.554 577.166 522.554 577.166L484.461 577.167C484.461 577.167 482.846 610.099 492.052 616.915Z" fill="white"/>
<path d="M492.052 616.915C496.403 620.136 510.577 620.136 514.929 616.914C524.136 610.099 522.554 577.166 522.554 577.166L484.461 577.167C484.461 577.167 482.846 610.099 492.052 616.915Z" stroke="#1A2E35" stroke-miterlimit="10" stroke-linecap="round" stroke-linejoin="round"/>
<path d="M518.414 570.705C518.414 566.558 514.574 566.558 514.574 562.412C514.574 558.267 518.414 558.267 518.414 554.123C518.414 549.974 514.574 549.974 514.574 545.827C514.574 541.675 518.414 541.675 518.414 537.525C518.414 533.373 514.574 533.373 514.574 529.222" stroke="#1A2E35" stroke-miterlimit="10" stroke-linecap="round" stroke-linejoin="round"/>
<path d="M505.254 570.704C505.254 567.556 501.414 567.556 501.414 564.409C501.414 561.261 505.254 561.261 505.254 558.112C505.254 554.963 501.414 554.963 501.414 551.81C501.414 548.657 505.254 548.657 505.254 545.504C505.254 542.351 501.414 542.351 501.414 539.198" stroke="#1A2E35" stroke-miterlimit="10" stroke-linecap="round" stroke-linejoin="round"/>
<path d="M490.781 570.705C490.781 566.558 486.942 566.558 486.942 562.412C486.942 558.267 490.781 558.267 490.781 554.123C490.781 549.974 486.942 549.974 486.942 545.827C486.942 541.675 490.781 541.675 490.781 537.525C490.781 533.373 486.942 533.373 486.942 529.222" stroke="#1A2E35" stroke-miterlimit="10" stroke-linecap="round" stroke-linejoin="round"/>
<path d="M484.461 577.166C484.461 578.123 492.989 578.901 503.507 578.901C514.026 578.901 522.553 578.123 522.553 577.166C522.553 576.207 514.026 575.43 503.507 575.43C492.989 575.43 484.461 576.207 484.461 577.166Z" fill="white"/>
<path d="M522.553 577.166C522.553 576.207 514.026 575.43 503.507 575.43C492.989 575.43 484.461 576.207 484.461 577.166C484.461 578.124 492.989 578.901 503.507 578.901C514.026 578.901 522.553 578.124 522.553 577.166Z" stroke="#1A2E35" stroke-miterlimit="10" stroke-linecap="round" stroke-linejoin="round"/>
<path d="M449.303 340.141C449.303 340.141 447.519 359.49 446.768 365.594C446.017 371.697 444.303 389.261 442.541 395.069C440.781 400.877 431.183 410.976 430.253 408.64C429.323 406.303 424.579 390.53 426.481 381.149C428.382 371.771 428.959 363.616 427.774 361.27C426.589 358.923 422.351 356.201 422.351 356.201C422.351 356.201 429.911 352.409 436.735 347.824C443.56 343.237 448.363 338.06 449.303 340.141Z" fill="white"/>
<mask id="mask12_155_1165" style="mask-type:luminance" maskUnits="userSpaceOnUse" x="422" y="339" width="28" height="70">
<path d="M449.303 340.141C449.303 340.141 447.519 359.49 446.768 365.594C446.016 371.697 444.303 389.261 442.541 395.069C440.779 400.877 431.183 410.976 430.255 408.64C429.323 406.303 424.577 390.53 426.48 381.149C428.382 371.769 428.958 363.616 427.774 361.27C426.588 358.923 422.351 356.201 422.351 356.201C422.351 356.201 429.91 352.409 436.736 347.824C442.491 343.956 446.808 339.667 448.583 339.667C448.914 339.667 449.156 339.815 449.303 340.141Z" fill="white"/>
</mask>
<g mask="url(#mask12_155_1165)">
<path d="M424.72 357.099L426.284 354.116C429.096 352.575 433.02 350.319 436.735 347.824C443.559 343.237 448.363 338.06 449.302 340.141C449.302 340.141 447.519 359.492 446.768 365.594C446.016 371.697 444.303 389.261 442.541 395.069C442.111 396.488 441.21 398.161 440.087 399.846C441.941 388.293 439.929 367.44 439.929 367.44L424.72 357.099Z" fill="#004B84"/>
<g opacity="0.5">
<path d="M424.72 357.099L426.284 354.116C429.096 352.575 433.02 350.319 436.735 347.824C443.559 343.237 448.363 338.06 449.302 340.141C449.302 340.141 447.519 359.492 446.768 365.594C446.016 371.697 444.303 389.261 442.541 395.069C442.111 396.488 441.21 398.161 440.087 399.846C441.941 388.293 439.929 367.44 439.929 367.44L424.72 357.099Z" fill="white"/>
</g>
</g>
<path d="M449.303 340.141C449.303 340.141 447.519 359.49 446.768 365.594C446.017 371.697 444.303 389.261 442.541 395.069C440.781 400.877 431.183 410.976 430.253 408.64C429.323 406.303 424.579 390.53 426.481 381.149C428.382 371.771 428.959 363.616 427.774 361.27C426.589 358.923 422.351 356.201 422.351 356.201C422.351 356.201 429.911 352.409 436.735 347.824C443.56 343.237 448.363 338.06 449.303 340.141Z" stroke="#1A2E35" stroke-miterlimit="10" stroke-linecap="round" stroke-linejoin="round"/>
<path d="M450.017 342.903C450.017 342.903 438.984 352.138 430.518 355.472C422.052 358.807 409.056 358.629 407.229 354.221C405.401 349.815 410.44 315.007 414.801 305.842C419.163 296.678 423.836 296.528 431.532 295.831C439.228 295.134 454.65 301.409 457.359 308.85C460.067 316.292 456.983 326.84 454.738 333.086C452.492 339.332 450.017 342.903 450.017 342.903Z" fill="white"/>
<mask id="mask13_155_1165" style="mask-type:luminance" maskUnits="userSpaceOnUse" x="406" y="295" width="53" height="63">
<path d="M457.359 308.851C460.066 316.292 456.983 326.84 454.738 333.087C452.492 339.333 450.016 342.903 450.016 342.903C450.016 342.903 438.984 352.138 430.517 355.471C422.052 358.807 409.055 358.627 407.229 354.221C405.401 349.817 410.438 315.007 414.8 305.842C419.161 296.678 423.836 296.528 431.531 295.832C431.924 295.797 432.338 295.779 432.769 295.779C440.77 295.779 454.788 301.789 457.359 308.851Z" fill="white"/>
</mask>
<g mask="url(#mask13_155_1165)">
<path d="M430.195 342.497C434.105 330.878 435.062 312.687 435.062 307.82C435.062 304.065 425.288 299.95 420.821 298.263C423.745 296.454 427.147 296.229 431.531 295.832C439.228 295.133 454.651 301.409 457.358 308.851C460.066 316.292 456.984 326.84 454.738 333.086C452.492 339.333 450.016 342.903 450.016 342.903C450.016 342.903 438.984 352.138 430.517 355.471C424.878 357.693 417.241 358.345 412.222 357.238C418.204 354.949 427.591 350.236 430.195 342.497Z" fill="#004B84"/>
<g opacity="0.5">
<path d="M430.195 342.497C434.105 330.878 435.062 312.687 435.062 307.82C435.062 304.065 425.288 299.95 420.821 298.263C423.745 296.454 427.147 296.229 431.531 295.832C439.228 295.133 454.651 301.409 457.358 308.851C460.066 316.292 456.984 326.84 454.738 333.086C452.492 339.333 450.016 342.903 450.016 342.903C450.016 342.903 438.984 352.138 430.517 355.471C424.878 357.693 417.241 358.345 412.222 357.238C418.204 354.949 427.591 350.236 430.195 342.497Z" fill="white"/>
</g>
</g>
<path d="M450.017 342.903C450.017 342.903 438.984 352.138 430.518 355.472C422.052 358.807 409.056 358.629 407.229 354.221C405.401 349.815 410.44 315.007 414.801 305.842C419.163 296.678 423.836 296.528 431.532 295.831C439.228 295.134 454.65 301.409 457.359 308.85C460.067 316.292 456.983 326.84 454.738 333.086C452.492 339.332 450.017 342.903 450.017 342.903Z" stroke="#1A2E35" stroke-miterlimit="10" stroke-linecap="round" stroke-linejoin="round"/>
<path d="M426.956 320.658C427.129 316.245 424.363 312.554 420.777 312.413C417.192 312.272 414.145 315.735 413.971 320.148C413.798 324.56 416.564 328.251 420.149 328.392C423.735 328.533 426.782 325.07 426.956 320.658Z" stroke="#1A2E35" stroke-miterlimit="10" stroke-linecap="round" stroke-linejoin="round"/>
<path d="M412.293 318.746C412.467 314.334 411.042 310.695 409.111 310.619C407.18 310.543 405.474 314.058 405.3 318.47C405.126 322.883 406.55 326.521 408.481 326.597C410.412 326.674 412.118 323.158 412.293 318.746Z" stroke="#1A2E35" stroke-miterlimit="10" stroke-linecap="round" stroke-linejoin="round"/>
<path d="M413.522 318.558C413.522 318.558 400.868 320.965 402.081 324.013C403.296 327.06 411.86 330.356 411.86 330.356" fill="white"/>
<path d="M413.522 318.558C413.522 318.558 400.868 320.965 402.081 324.013C403.296 327.06 411.86 330.356 411.86 330.356" stroke="#1A2E35" stroke-miterlimit="10" stroke-linecap="round" stroke-linejoin="round"/>
<path d="M414.296 317.15C414.296 317.15 414.118 315.586 412.162 316.586" stroke="#1A2E35" stroke-miterlimit="10" stroke-linecap="round" stroke-linejoin="round"/>
<path d="M427.313 321.378L450.322 330.431" stroke="#1A2E35" stroke-miterlimit="10" stroke-linecap="round" stroke-linejoin="round"/>
<path d="M427.004 313.937C427.004 313.937 425.591 310.285 421.269 310.476" stroke="#1A2E35" stroke-width="2" stroke-miterlimit="10" stroke-linecap="round" stroke-linejoin="round"/>
<path d="M411.679 310.577L415.222 311.916" stroke="#1A2E35" stroke-width="2" stroke-miterlimit="10" stroke-linecap="round" stroke-linejoin="round"/>
<path d="M422.625 336.28C422.625 336.28 418.073 335.079 415.41 337.784" stroke="#1A2E35" stroke-miterlimit="10" stroke-linecap="round" stroke-linejoin="round"/>
<path d="M419.654 320.988C419.443 322.524 419.725 323.832 420.285 323.909C420.843 323.985 421.468 322.801 421.677 321.265C421.888 319.728 421.606 318.419 421.046 318.343C420.487 318.266 419.863 319.45 419.654 320.988Z" fill="#1A2E35"/>
<path d="M448.171 330.495C448.171 330.495 449.717 333.556 445.377 333.719C441.037 333.881 438.118 331.767 440.222 329.182C442.324 326.598 445.424 324.052 442.226 320.592C439.028 317.132 432.808 314.219 436.294 310.356C439.781 306.493 452.645 310 449.434 306.873C446.224 303.747 431.348 300.493 424.664 300.897C417.979 301.3 405.513 296.142 402.78 289.366C400.045 282.59 403.872 270.072 412.846 270.758C421.822 271.444 428.511 279.376 432.493 279.867C436.475 280.356 444.648 276.011 451.494 279.947C458.341 283.884 458.575 294.896 459.188 296.254C459.801 297.612 469.057 299.642 470.687 309.043C472.317 318.442 468.021 325.942 464.19 330.125C460.357 334.308 458.627 335.908 458.627 335.908L448.171 330.495Z" fill="#1A2E35" stroke="#1A2E35" stroke-miterlimit="10" stroke-linecap="round" stroke-linejoin="round"/>
<path d="M467.665 313.525C467.817 315.848 466.676 317.598 466.676 317.598" stroke="white" stroke-width="0.75" stroke-miterlimit="10" stroke-linecap="round" stroke-linejoin="round"/>
<path d="M428.604 289.275C428.604 289.275 431.954 281.965 423.426 281.966C414.899 281.965 413.679 292.625 422.514 296.583C431.345 300.543 450.533 301.457 460.888 306.024C463.477 307.168 465.133 308.461 466.161 309.762" stroke="white" stroke-width="0.75" stroke-miterlimit="10" stroke-linecap="round" stroke-linejoin="round"/>
<path d="M444.027 315.226C447.09 316.321 451.061 317.855 455.102 319.73C463.629 323.69 461.803 327.649 461.803 327.649" stroke="white" stroke-width="0.75" stroke-miterlimit="10" stroke-linecap="round" stroke-linejoin="round"/>
<path d="M438.35 313.336C438.35 313.336 439.095 313.557 440.368 313.973" stroke="white" stroke-width="0.75" stroke-miterlimit="10" stroke-linecap="round" stroke-linejoin="round"/>
<path d="M446.708 333.771C446.708 333.771 451.657 326.63 456.878 329.503C462.1 332.375 458.031 342.551 454.891 346.096C451.752 349.639 445.676 343.065 445.075 341.374" fill="white"/>
<mask id="mask14_155_1165" style="mask-type:luminance" maskUnits="userSpaceOnUse" x="445" y="328" width="15" height="20">
<path d="M456.879 329.504C462.1 332.375 458.033 342.551 454.892 346.096C451.752 349.639 445.676 343.065 445.077 341.375L446.708 333.771C446.708 333.771 450.139 328.822 454.301 328.822C455.137 328.822 456.005 329.023 456.879 329.504Z" fill="white"/>
</mask>
<g mask="url(#mask14_155_1165)">
<path d="M446.708 333.77C446.708 333.77 451.657 326.63 456.878 329.502C462.1 332.375 458.031 342.55 454.891 346.095C451.752 349.639 445.676 343.065 445.075 341.374" fill="#004B84"/>
<g opacity="0.5">
<path d="M446.708 333.77C446.708 333.77 451.657 326.63 456.878 329.502C462.1 332.375 458.031 342.55 454.891 346.095C451.752 349.639 445.676 343.065 445.075 341.374" fill="white"/>
</g>
</g>
<path d="M446.708 333.771C446.708 333.771 451.657 326.63 456.878 329.503C462.1 332.375 458.031 342.551 454.891 346.096C451.752 349.639 445.676 343.065 445.075 341.374" stroke="#1A2E35" stroke-miterlimit="10" stroke-linecap="round" stroke-linejoin="round"/>
<path d="M146.167 617.025C146.167 623.375 157.64 628.523 171.792 628.523C185.943 628.523 197.415 623.375 197.415 617.025C197.415 610.675 185.943 605.529 171.792 605.529C157.64 605.529 146.167 610.675 146.167 617.025Z" fill="#004B84"/>
<path d="M146.167 617.025C146.167 623.375 157.64 628.523 171.792 628.523C185.943 628.523 197.415 623.375 197.415 617.025C197.415 610.675 185.943 605.529 171.792 605.529C157.64 605.529 146.167 610.675 146.167 617.025Z" fill="url(#paint2_linear_155_1165)"/>
<path d="M201.771 447.002C199.028 448.2 192.32 448.05 192.313 448.05C192.243 448.049 193.757 443.656 193.884 443.391C195.356 440.312 200.01 435.227 203.796 435.739C206.526 436.11 208.043 438.84 207.425 441.409C206.797 444.033 204.105 445.98 201.771 447.002Z" fill="#1A2E35"/>
<path d="M155.968 526.26C158.265 531.546 160.379 535.861 161.896 538.856C162.202 539.459 162.478 539.993 162.734 540.487H162.988C163.062 539.901 163.147 539.262 163.244 538.545C163.708 535.178 164.436 530.381 165.571 524.675C165.925 522.87 166.34 520.949 166.784 518.98C166.338 518.803 163.803 517.778 161.557 516.523C159.601 518.64 154.59 521.12 153.94 521.436C154.622 523.112 155.302 524.738 155.968 526.26ZM113.895 424.168C117.696 423.76 122.211 428.968 123.599 432.084C123.718 432.355 125.109 436.784 125.042 436.784C125.042 436.784 124.976 436.782 124.959 436.782C125.679 437.599 126.441 438.483 127.253 439.465C128.74 441.291 130.402 443.368 132.06 445.749C133.722 448.127 135.461 450.756 137.042 453.69C138.634 456.629 140.155 459.801 141.301 463.274C141.313 463.312 141.321 463.353 141.335 463.395C141.316 462.273 141.364 459.142 141.394 458.901C141.834 455.517 144.671 449.236 148.429 448.542C151.136 448.041 153.43 450.161 153.646 452.795C153.866 455.485 151.916 458.175 150.015 459.874C147.872 461.788 141.92 463.643 141.447 463.79C142.507 467.105 143.325 470.595 143.959 474.172C144.324 476.216 144.63 478.287 144.907 480.368C144.921 479.398 144.943 478.532 144.958 478.413C145.398 475.027 148.233 468.746 151.99 468.05C154.698 467.551 156.992 469.671 157.208 472.305C157.428 474.993 155.478 477.685 153.577 479.383C151.648 481.106 146.606 482.79 145.266 483.217C145.364 484.015 145.471 484.812 145.568 485.612C146.026 489.448 146.465 493.278 147.012 497.021C147.205 498.338 147.444 499.631 147.677 500.924C147.691 500.063 147.708 499.34 147.723 499.23C148.161 495.844 150.999 489.564 154.757 488.87C157.465 488.369 159.759 490.49 159.973 493.123C160.194 495.812 158.243 498.504 156.342 500.201C154.502 501.845 149.862 503.44 148.272 503.956C148.55 505.275 148.828 506.594 149.157 507.858C149.402 508.717 149.577 509.56 149.871 510.407C150.144 511.253 150.415 512.091 150.681 512.92C151.256 514.498 151.84 516.131 152.437 517.655C152.846 518.72 153.255 519.725 153.663 520.741C153.456 519.429 153.107 516.855 153.102 516.638C153.05 514.369 153.854 510.685 155.457 508.094C155.446 507.758 155.466 507.424 155.519 507.093C155.938 504.485 158.389 502.547 161.048 503.256C164.744 504.241 167.085 510.721 167.259 514.13C167.27 514.332 167.138 516.526 167.032 517.909C167.219 517.105 167.389 516.324 167.592 515.5C167.979 513.865 168.413 512.247 168.874 510.504C169.127 509.669 169.381 508.826 169.638 507.976C169.876 507.127 170.236 506.26 170.532 505.393C171.261 503.395 172.099 501.407 172.986 499.423C171.556 499.08 166.498 497.79 164.466 496.23C162.446 494.68 160.299 492.141 160.319 489.443C160.339 486.801 162.466 484.515 165.203 484.812C169.004 485.226 172.301 491.279 172.99 494.621C173.033 494.828 173.259 497.283 173.357 498.634C173.899 497.443 174.435 496.256 175.023 495.072C176.722 491.651 178.547 488.242 180.353 484.834C180.906 483.789 181.446 482.742 181.989 481.696C181.479 481.58 175.434 480.178 173.159 478.431C171.135 476.881 168.99 474.341 169.01 471.643C169.029 469.002 171.158 466.716 173.894 467.013C177.695 467.425 180.992 473.478 181.681 476.821C181.734 477.072 182.052 480.604 182.089 481.506C183.285 479.202 184.457 476.895 185.519 474.574C186.99 471.373 188.255 468.152 189.251 464.941C189.012 464.885 182.694 463.451 180.365 461.664C178.342 460.112 176.197 457.573 176.217 454.874C176.235 452.234 178.365 449.947 181.101 450.244C184.902 450.656 188.199 456.711 188.888 460.052C188.942 460.314 189.283 464.115 189.296 464.807C189.355 464.616 189.436 464.426 189.493 464.234C190.512 460.792 191.066 457.33 191.428 454.062C191.639 452.164 191.738 450.337 191.793 448.559C190.589 448.413 185.095 447.681 182.818 446.304C180.638 444.982 178.227 442.694 177.951 440.012C177.68 437.383 179.544 434.878 182.297 434.873C186.12 434.866 190.062 440.519 191.112 443.765C191.172 443.943 191.555 445.801 191.813 447.159C191.826 446.357 191.854 445.529 191.851 444.758C191.846 441.867 191.662 439.221 191.482 436.879C191.368 435.548 191.238 434.346 191.108 433.224C190 432.462 185.58 429.343 184.22 427.112C182.893 424.937 181.809 421.796 182.8 419.287C183.768 416.828 186.579 415.465 189.024 416.728C192.421 418.483 193.314 425.317 192.752 428.684C192.704 428.975 191.422 433.436 191.364 433.398C191.364 433.398 191.307 433.361 191.296 433.352C191.445 434.431 191.592 435.587 191.728 436.856C191.961 439.198 192.202 441.847 192.269 444.749C192.346 447.649 192.346 450.8 192.047 454.12C191.75 457.448 191.27 460.934 190.311 464.461C190.299 464.501 190.282 464.542 190.273 464.58C190.873 463.637 192.643 461.052 192.801 460.868C195.034 458.289 200.867 454.613 204.384 456.107C206.918 457.184 207.66 460.219 206.388 462.534C205.089 464.898 201.976 466.067 199.456 466.434C196.609 466.849 190.624 465.114 190.149 464.973C189.202 468.325 187.961 471.686 186.515 475.02C185.692 476.927 184.804 478.82 183.889 480.709C184.434 479.91 184.929 479.199 185.009 479.107C187.243 476.525 193.075 472.852 196.592 474.344C199.126 475.421 199.868 478.456 198.596 480.771C197.297 483.136 194.184 484.303 191.662 484.673C189.104 485.045 183.969 483.666 182.616 483.285C182.257 484.005 181.908 484.729 181.545 485.448C179.811 488.899 178.067 492.336 176.459 495.761C175.892 496.967 175.377 498.176 174.858 499.384C175.344 498.674 175.759 498.079 175.832 497.996C178.064 495.415 183.895 491.741 187.413 493.233C189.948 494.312 190.691 497.345 189.418 499.66C188.117 502.024 185.007 503.193 182.486 503.561C180.042 503.916 175.291 502.687 173.683 502.24C173.188 503.493 172.69 504.746 172.269 505.984C171.999 506.833 171.681 507.634 171.457 508.503C171.218 509.359 170.982 510.207 170.746 511.046C170.357 512.679 169.942 514.361 169.599 515.964C169.352 517.078 169.139 518.142 168.92 519.213C169.47 518.007 170.599 515.667 170.715 515.481C172.531 512.592 177.738 508.077 181.442 509.021C184.11 509.699 185.303 512.587 184.398 515.068C183.469 517.603 180.572 519.228 178.135 519.975C175.451 520.796 169.508 520.045 168.767 519.947C168.411 521.723 168.08 523.452 167.797 525.09C166.795 530.764 166.178 535.53 165.793 538.866C165.724 539.457 165.667 539.987 165.614 540.487H177.116L173.418 612.648C173.136 618.133 168.607 622.435 163.115 622.435C157.624 622.435 153.094 618.133 152.814 612.648L149.116 540.487H159.831C159.752 540.321 159.677 540.168 159.593 539.995C158.124 536.931 156.085 532.529 153.883 527.141C153.183 525.442 152.468 523.612 151.752 521.724C151.034 521.874 145.151 523.069 142.41 522.45C139.924 521.888 136.913 520.482 135.8 518.023C134.71 515.618 135.686 512.649 138.297 511.772C141.918 510.556 147.447 514.671 149.474 517.418C149.595 517.579 150.695 519.48 151.369 520.692C151.081 519.919 150.793 519.173 150.507 518.375C149.928 516.797 149.398 515.208 148.82 513.5C148.57 512.665 148.318 511.821 148.063 510.971C147.792 510.131 147.614 509.211 147.383 508.324C146.89 506.254 146.491 504.135 146.138 501.989C144.757 502.491 139.826 504.207 137.27 504.028C134.729 503.849 131.539 502.916 130.067 500.655C128.624 498.441 129.138 495.36 131.587 494.098C134.983 492.345 141.071 495.576 143.49 497.983C143.642 498.133 145.183 500.055 146.01 501.128C145.807 499.836 145.598 498.548 145.436 497.237C144.964 493.446 144.607 489.597 144.233 485.757C144.12 484.581 143.991 483.41 143.869 482.238C143.378 482.422 137.561 484.588 134.7 484.386C132.158 484.208 128.968 483.274 127.496 481.013C126.055 478.801 126.569 475.718 129.016 474.457C132.412 472.705 138.502 475.933 140.921 478.341C141.103 478.523 143.317 481.292 143.846 482.024C143.573 479.441 143.277 476.873 142.882 474.35C142.343 470.871 141.621 467.485 140.681 464.257C140.451 464.343 134.39 466.63 131.461 466.425C128.918 466.247 125.728 465.313 124.256 463.052C122.814 460.838 123.328 457.757 125.776 456.495C129.174 454.742 135.262 457.973 137.681 460.38C137.871 460.568 140.252 463.549 140.644 464.119C140.589 463.928 140.552 463.724 140.491 463.534C139.443 460.099 137.996 456.905 136.494 453.982C135.625 452.282 134.698 450.705 133.764 449.19C132.677 449.732 127.691 452.154 125.034 452.26C122.488 452.363 119.214 451.784 117.503 449.697C115.827 447.655 115.998 444.537 118.292 443.015C121.477 440.899 127.884 443.44 130.553 445.568C130.697 445.683 132.043 447.022 133.008 448.012C132.575 447.335 132.141 446.629 131.715 445.99C130.116 443.58 128.503 441.475 127.061 439.621C126.232 438.573 125.462 437.642 124.731 436.779C123.389 436.755 117.981 436.592 115.617 435.482C113.31 434.397 110.672 432.376 110.113 429.737C109.567 427.152 111.157 424.464 113.895 424.168Z" fill="#1A2E35"/>
<path d="M133.917 448.478C133.858 448.514 132.697 444.019 132.656 443.727C132.186 440.347 133.263 433.539 136.703 431.877C139.184 430.68 141.955 432.119 142.859 434.602C143.78 437.138 142.611 440.248 141.226 442.388C139.6 444.9 133.921 448.474 133.917 448.478Z" fill="#1A2E35"/>
<defs>
<linearGradient id="paint0_linear_155_1165" x1="253.2" y1="-286.02" x2="280.285" y2="645.082" gradientUnits="userSpaceOnUse">
<stop stop-color="white"/>
<stop offset="1" stop-color="#1D52EE"/>
</linearGradient>
<linearGradient id="paint1_linear_155_1165" x1="429" y1="670" x2="429" y2="474.5" gradientUnits="userSpaceOnUse">
<stop stop-color="#2759B9"/>
<stop offset="1"/>
</linearGradient>
<linearGradient id="paint2_linear_155_1165" x1="197" y1="660.5" x2="81.5" y2="393" gradientUnits="userSpaceOnUse">
<stop stop-color="#2759B9"/>
<stop offset="1"/>
</linearGradient>
</defs>
</svg>
